<svg width="96" height="96" viewBox="0 0 96 96" fill="none" xmlns="http://www.w3.org/2000/svg">
  <rect x="6" y="10" width="84" height="76" rx="18" fill="#12151B" stroke="#B6FF2B" stroke-width="3"/>
  <path d="M26 30h36a10 10 0 0 1 10 10v26a6 6 0 0 1-6 6H30a4 4 0 0 1-4-4V30z" fill="#171C24" stroke="#B6FF2B" stroke-width="2"/>
  <path d="M26 30c6-4 12-6 18-6 6 0 12 2 18 6" stroke="#B6FF2B" stroke-width="2" stroke-linecap="round"/>
  <circle cx="70" cy="36" r="4" fill="#B6FF2B"/>
  <path d="M34 44h30M34 52h24M34 60h18" stroke="#A0A8B6" stroke-width="2" stroke-linecap="round"/>
</svg>
